HIERARCHY
ROOT Hips
{
	OFFSET -0.001795 -0.223333 0.028219
	CHANNELS 6 Xposition Yposition Zposition Zrotation Yrotation Xrotation 
	JOINT LeftUpLeg
	{
		OFFSET 0.069520 -0.091406 -0.006815
		CHANNELS 3 Zrotation Yrotation Xrotation
		JOINT LeftLeg
		{
			OFFSET 0.034277 -0.375199 -0.004496
			CHANNELS 3 Zrotation Yrotation Xrotation
			JOINT LeftFoot
			{
				OFFSET -0.013596 -0.397961 -0.043693
				CHANNELS 3 Zrotation Yrotation Xrotation
				JOINT LeftToe
				{
					OFFSET 0.026358 -0.055791 0.119288
					CHANNELS 3 Zrotation Yrotation Xrotation
					End Site
					{
						OFFSET 0.000000 0.000000 0.000000
					}
				}
			}
		}
	}
	JOINT RightUpLeg
	{
		OFFSET -0.067670 -0.090522 -0.004320
		CHANNELS 3 Zrotation Yrotation Xrotation
		JOINT RightLeg
		{
			OFFSET -0.038290 -0.382569 -0.008850
			CHANNELS 3 Zrotation Yrotation Xrotation
			JOINT RightFoot
			{
				OFFSET 0.015774 -0.398415 -0.042312
				CHANNELS 3 Zrotation Yrotation Xrotation
				JOINT RightToe
				{
					OFFSET -0.025372 -0.048144 0.123348
					CHANNELS 3 Zrotation Yrotation Xrotation
					End Site
					{
						OFFSET 0.000000 0.000000 0.000000
					}
				}
			}
		}
	}
	JOINT Spine
	{
		OFFSET -0.002533 0.108963 -0.026696
		CHANNELS 3 Zrotation Yrotation Xrotation
		JOINT Spine1
		{
			OFFSET 0.005487 0.135180 0.001092
			CHANNELS 3 Zrotation Yrotation Xrotation
			JOINT Spine2
			{
				OFFSET 0.001457 0.052922 0.025425
				CHANNELS 3 Zrotation Yrotation Xrotation
				JOINT Neck
				{
					OFFSET -0.002778 0.213870 -0.042857
					CHANNELS 3 Zrotation Yrotation Xrotation
					JOINT Head
					{
						OFFSET 0.005152 0.064970 0.051349
						CHANNELS 3 Zrotation Yrotation Xrotation
						End Site
						{
							OFFSET 0.000000 0.000000 0.000000
						}
					}
				}
				JOINT LeftShoulder
				{
					OFFSET 0.078845 0.121749 -0.034090
					CHANNELS 3 Zrotation Yrotation Xrotation
					JOINT LeftArm
					{
						OFFSET 0.090977 0.030469 -0.008868
						CHANNELS 3 Zrotation Yrotation Xrotation
						JOINT LeftForeArm
						{
							OFFSET 0.259612 -0.012772 -0.027456
							CHANNELS 3 Zrotation Yrotation Xrotation
							JOINT LeftHand
							{
								OFFSET 0.249234 0.008986 -0.001171
								CHANNELS 3 Zrotation Yrotation Xrotation
								End Site
								{
									OFFSET 0.000000 0.000000 0.000000
								}
							}
						}
					}
				}
				JOINT RightShoulder
				{
					OFFSET -0.081759 0.118833 -0.038615
					CHANNELS 3 Zrotation Yrotation Xrotation
					JOINT RightArm
					{
						OFFSET -0.096012 0.032551 -0.009143
						CHANNELS 3 Zrotation Yrotation Xrotation
						JOINT RightForeArm
						{
							OFFSET -0.253742 -0.013329 -0.021401
							CHANNELS 3 Zrotation Yrotation Xrotation
							JOINT RightHand
							{
								OFFSET -0.255298 0.007772 -0.005559
								CHANNELS 3 Zrotation Yrotation Xrotation
								End Site
								{
									OFFSET 0.000000 0.000000 0.000000
								}
							}
						}
					}
				}
			}
		}
	}
}
MOTION
Frames: 11
Frame Time: 0.050000
0.592818 0.875924 -0.358931 -178.160306 19.285349 172.690841 1.470655 -23.902236 23.572430 -20.541629 -10.684392 27.573475 23.726703 4.688777 40.808626 0.000000 0.000000 0.000000 2.222291 -14.849825 -22.118882 -6.699877 -15.983236 20.508624 21.434284 -2.683574 2.358686 0.000000 0.000000 0.000000 -0.203545 -1.778287 12.046154 0.659319 -15.254558 -1.251176 4.827694 2.483324 4.583884 -15.619983 -9.851531 -11.412452 0.000000 0.000000 0.000000 -22.622309 -12.827516 -61.011777 -30.099833 41.006902 -4.048494 -52.773803 -28.723552 15.384639 0.000000 0.000000 0.000000 29.763859 -16.078814 32.339929 40.831206 23.073445 -3.071997 -2.330375 14.969396 -1.216000 0.000000 0.000000 0.000000 
0.640303 0.881566 -0.402780 -177.107095 19.863700 172.103737 7.492882 -19.557855 14.713195 -39.173644 -17.195794 44.492294 25.583873 5.405019 58.613906 0.000000 0.000000 0.000000 2.675713 -9.917059 -17.217826 -6.800704 -20.046608 22.712600 26.001793 -2.504731 -4.973682 0.000000 0.000000 0.000000 -0.423819 -2.089776 12.597097 2.398234 -13.984692 -2.310426 4.804057 1.661258 5.937317 -13.422754 -9.185243 -11.531702 0.000000 0.000000 0.000000 -23.120290 -12.160437 -61.973528 -29.487578 44.050948 -4.227656 -49.279327 -24.856301 11.863734 0.000000 0.000000 0.000000 28.291254 -13.304136 34.480909 40.354398 26.557829 -1.532567 -4.669440 17.903879 -1.745684 0.000000 0.000000 0.000000 
0.679881 0.889679 -0.441587 -177.222406 22.060357 171.704768 9.402589 -13.454221 6.650957 -56.375583 -19.312971 56.930641 30.464221 2.735235 72.167300 0.000000 0.000000 0.000000 3.796698 -6.095782 -13.031113 -6.549864 -20.517029 22.421497 28.135592 -2.723859 -9.223099 0.000000 0.000000 0.000000 -1.155478 -2.756837 14.199872 3.399714 -12.335600 -3.397892 4.414675 2.558524 6.818808 -10.755829 -7.221268 -13.450240 0.000000 0.000000 0.000000 -22.779643 -10.582267 -60.747758 -31.401745 44.793815 -5.991421 -44.571501 -20.637790 7.814622 0.000000 0.000000 0.000000 28.335916 -11.569238 35.753858 37.314550 31.475703 -0.688406 -6.564848 19.472697 -2.149618 0.000000 0.000000 0.000000 
0.712906 0.900635 -0.476134 -177.768163 24.855078 170.906684 8.443062 -8.172911 -0.254320 -66.717946 -19.371431 64.192805 42.212234 2.644619 77.172555 0.000000 0.000000 0.000000 4.337356 -3.825064 -8.751949 -5.639656 -20.090315 21.326348 29.110264 -2.746240 -10.162581 0.000000 0.000000 0.000000 -1.602617 -2.853062 14.599733 1.949231 -11.725348 -2.972847 5.915413 5.221721 8.007611 -9.858836 -6.699875 -13.576255 0.000000 0.000000 0.000000 -23.199629 -10.601825 -60.973763 -29.974481 45.956034 -5.504216 -41.868455 -18.371834 6.277042 0.000000 0.000000 0.000000 26.637120 -10.225582 35.316787 36.348583 35.815122 1.647903 -9.712781 22.923375 -2.791134 0.000000 0.000000 0.000000 
0.740726 0.909364 -0.507102 -178.481210 26.364254 170.329955 6.818103 -5.253556 -6.222316 -59.061748 -21.779567 58.769195 41.285731 -16.322554 87.772095 0.000000 0.000000 0.000000 4.698848 -2.800690 -5.034400 -4.997895 -18.878651 19.756367 29.917449 -3.538331 -11.085536 0.000000 0.000000 0.000000 -1.409062 -3.265008 15.598309 1.222789 -10.222552 -3.945732 5.938029 7.939679 9.092244 -8.521133 -7.276751 -14.286242 0.000000 0.000000 0.000000 -22.152751 -12.223211 -61.290445 -28.014374 48.165754 -5.064875 -40.307966 -15.225834 4.649417 0.000000 0.000000 0.000000 25.770992 -10.095742 36.510402 33.497614 39.621415 2.616090 -12.022187 25.156178 -3.402809 0.000000 0.000000 0.000000 
0.764624 0.914088 -0.535425 -179.493070 28.825243 169.906758 4.624406 -3.753112 -10.771811 -34.647180 -20.340662 38.884364 -33.953406 -37.993628 150.928171 0.000000 0.000000 0.000000 4.469615 -2.607366 -1.469424 -3.697290 -16.664201 17.231425 31.025683 -3.395683 -12.284456 0.000000 0.000000 0.000000 -1.305065 -3.368476 15.919029 0.387119 -9.369270 -4.012189 6.241469 10.524311 9.884431 -8.428028 -7.572272 -13.500078 0.000000 0.000000 0.000000 -22.428359 -12.360111 -61.252996 -26.389759 49.516022 -4.484703 -38.480420 -14.686320 4.012719 0.000000 0.000000 0.000000 24.419485 -8.327333 37.279542 31.136105 42.170424 3.390990 -13.991942 26.675443 -3.906543 0.000000 0.000000 0.000000 
0.785474 0.915976 -0.562387 -179.756634 29.889016 170.188526 3.847177 -3.880123 -14.478621 -20.175850 -14.733330 23.480317 -80.348072 -15.062948 177.384004 0.000000 0.000000 0.000000 4.329803 -2.737494 0.474490 -3.450214 -16.605627 17.050999 32.305009 -2.157669 -12.743342 0.000000 0.000000 0.000000 -0.655073 -3.474149 16.124054 -0.021000 -8.398947 -4.779313 6.464534 11.960030 11.103288 -8.513564 -7.721957 -14.696501 0.000000 0.000000 0.000000 -22.421182 -12.959430 -62.599426 -23.567971 51.848791 -3.047448 -37.541784 -13.374249 3.430539 0.000000 0.000000 0.000000 23.944399 -7.751845 38.896261 26.678127 44.617450 2.907552 -15.910108 27.815621 -4.495971 0.000000 0.000000 0.000000 
0.804599 0.916443 -0.588626 179.975634 30.514385 170.522599 3.297369 -4.207524 -16.722766 -14.367521 -11.512581 16.577469 -50.572598 -42.401709 162.587498 0.000000 0.000000 0.000000 4.443195 -2.924596 2.443612 -3.464359 -15.722743 16.366966 33.230691 -1.868594 -13.881367 0.000000 0.000000 0.000000 -0.976263 -3.615851 16.447174 0.081728 -7.851827 -5.212537 6.895930 13.190427 11.403771 -7.656929 -7.792480 -14.808992 0.000000 0.000000 0.000000 -22.738586 -13.143591 -63.754703 -18.955564 53.847693 -0.623032 -35.740361 -12.494093 2.893706 0.000000 0.000000 0.000000 22.332749 -6.738061 39.137550 25.585724 45.994425 3.814401 -17.415522 28.396905 -4.814001 0.000000 0.000000 0.000000 
0.822344 0.917207 -0.615047 -179.776530 30.065839 170.803983 2.752906 -4.474295 -18.008695 -11.960484 -10.472981 15.992359 38.906220 -34.801201 60.787669 0.000000 0.000000 0.000000 4.413558 -3.728629 5.532575 -2.180937 -14.556714 14.077822 34.288525 -2.771895 -14.876307 0.000000 0.000000 0.000000 -0.758813 -3.773195 16.684345 -0.121851 -8.341945 -4.819651 6.568989 14.778618 11.786171 -6.014515 -8.205214 -14.807594 0.000000 0.000000 0.000000 -22.677671 -13.428133 -64.655696 -16.086600 55.209573 0.980016 -33.674820 -13.353833 2.697087 0.000000 0.000000 0.000000 23.192241 -7.374752 40.592600 22.371189 47.977845 2.741036 -18.142761 28.459450 -5.200141 0.000000 0.000000 0.000000 
0.839235 0.916082 -0.642219 179.843890 30.374943 170.960722 0.893384 -4.023189 -18.136168 -10.356718 -10.735368 19.734993 41.813351 -13.393210 30.556248 0.000000 0.000000 0.000000 3.772263 -4.885860 8.217441 -1.572297 -12.992533 12.248195 35.498042 -2.608999 -15.809395 0.000000 0.000000 0.000000 -1.619904 -3.711219 16.789949 -0.569087 -8.387338 -4.838094 6.594932 16.367298 12.155173 -3.983590 -7.890780 -15.870254 0.000000 0.000000 0.000000 -21.634016 -13.566363 -64.696377 -15.214749 55.784102 1.009188 -32.040572 -12.510580 2.071759 0.000000 0.000000 0.000000 24.085378 -7.433345 42.722955 20.634818 48.860024 1.584179 -20.024968 28.708419 -5.989930 0.000000 0.000000 0.000000 
0.854540 0.914402 -0.670487 -179.939213 30.681855 172.260038 0.049915 -4.052229 -18.641339 -9.633346 -11.393129 22.454561 40.686075 -9.762614 25.479123 0.000000 0.000000 0.000000 3.410067 -5.233553 8.858686 -1.464687 -13.485705 12.714289 36.237792 -1.521579 -15.384768 0.000000 0.000000 0.000000 -2.009931 -3.343586 16.162451 -1.258415 -8.973142 -4.205187 7.079631 17.700440 11.554655 -4.762692 -9.058518 -14.788376 0.000000 0.000000 0.000000 -21.793981 -14.788319 -64.912311 -13.159047 55.912661 2.472962 -30.043829 -12.491919 1.872665 0.000000 0.000000 0.000000 25.138255 -8.570442 43.014018 20.509765 48.853148 0.958662 -18.566677 28.732945 -5.756938 0.000000 0.000000 0.000000 
